{"title":"The Disappearance Of Alice Creed DvDRip XviD Feel-Free","uid":5848120,"size":1234708352,"categoryP":"video","categoryS":"movies","magnet":"?xt=urn:btih:c74631edeba656ea73f83d2c5bdb8767ef9d367f&amp;dn=The+Disappearance+Of+Alice+Creed+DvDRip+XviD+Feel-Free&amp;tr=udp%3A%2F%2Ftracker.openbittorrent.com%3A80&amp;tr=udp%3A%2F%2Fopen.demonii.com%3A1337&amp;tr=udp%3A%2F%2Ftracker.coppersurfer.tk%3A6969&amp;tr=udp%3A%2F%2Fexodus.desync.com%3A6969","seeders":0,"leechers":0,"uploader":"neon","files":-1,"time":1285276807,"description":"Plot\nTwo men fortify a nondescript British apartment so it can serve as a prison, and then kidnap a woman and tie her to a bed. Before there's even time to react, we're plunged into a very nasty situation, but not a simple one\n\nGenre:Crime | Drama | Thriller\nLanguage: English\nIMDB:http://www.imdb.com/title/tt1379177/\nSource:DVD\nSubtitles:Romana\n\nGeneral\nComplete name :The Disappearance Of Alice Creed DvDRip XviD Feel-Free\nFormat : AVI\nFormat/Info : Audio Video Interleave\nFile size : 1.15 GiB\nDuration : 1h 36mn\nOverall bit rate : 1 711 Kbps\nVideo #0\nMuxing mode : Packed bitstream\nCodec ID : XVID\nCodec ID/Hint : XviD\nDuration : 1h 36mn\nBit rate : 1 589 Kbps\nWidth : 688 pixels\nHeight : 288 pixels\nDisplay aspect ratio : 2.35:1\nFrame rate : 25.000 fps\nResolution : 24 bits\nColorimetry : 4:2:0\nScan type : Progressive\nBits/(Pixel*Frame) : 0.321\nStream size : 1.07 GiB (93%)\nWriting library : XviD 1.2.1 (UTC 2008-12-04)\nAudio #1\nID : 1\nFormat : MPEG Audio\nFormat version : Version 1\nFormat profile : Layer 3\nCodec ID : 55\nCodec ID/Hint : MP3\nDuration : 1h 36mn\nBit rate mode : Constant\nBit rate : 112 Kbps\nChannel(s) : 2 channels\nSampling rate : 48.0 KHz\nResolution : 16 bits\nVideo delay : 480ms\nStream size : 77.0 MiB (7%)\nAlignment : Aligned on interleaves\nInterleave, duration : 40 ms (1.00 video frame)\nInterleave, preload duration : 504 ms\n\n","torrent":{"xt":"urn:btih:c74631edeba656ea73f83d2c5bdb8767ef9d367f","amp;dn":"The+Disappearance+Of+Alice+Creed+DvDRip+XviD+Feel-Free","amp;tr":["udp%3A%2F%2Ftracker.openbittorrent.com%3A80","udp%3A%2F%2Fopen.demonii.com%3A1337","udp%3A%2F%2Ftracker.coppersurfer.tk%3A6969","udp%3A%2F%2Fexodus.desync.com%3A6969"],"infoHash":"c74631edeba656ea73f83d2c5bdb8767ef9d367f","infoHashBuffer":{"type":"Buffer","data":[199,70,49,237,235,166,86,234,115,248,61,44,91,219,135,103,239,157,54,127]},"announce":[],"urlList":[]}}